<?xml version="1.0" encoding="UTF-8" standalone="no"?>
<!-- Created with Inkscape (http://www.inkscape.org/) -->

<svg
   version="1.1"
   id="svg1"


   viewBox="0 0 166.94594 344.99173"
   xmlns="http://www.w3.org/2000/svg"
   xmlns:svg="http://www.w3.org/2000/svg">
  <defs id="fonts1">
    <style>
@font-face {
    font-family: SKF Chevin OT;
    src: url('https://fonts.skf.com/SKFSans-Regular.woff');
}
@font-face {
    font-family: SKF Sans;
    src: url('https://fonts.skf.com/SKFSans-Regular.woff');
}
@font-face {
    font-family: SKFSans-Bold;
    src: url('https://fonts.skf.com/SKFSans-Bold.woff');
}
@font-face {
    font-family: SKFSans-Light;
    src: url('https://fonts.skf.com/SKFSans-Light.woff');
}
@font-face {
    font-family: SKFSans-Medium;
    src: url('https://fonts.skf.com/SKFSans-Medium.woff');
}
@font-face {
    font-family: SKFSans-Regular;
    src: url('https://fonts.skf.com/SKFSans-Regular.woff');
}
@font-face {
    font-family: SKFSansRound-Bold;
    src: url('https://fonts.skf.com/SKFSansRound-Bold.woff');
}
@font-face {
    font-family: SKFSansRound-Light;
    src: url('https://fonts.skf.com/SKFSansRound-Light.woff');
}
@font-face {
    font-family: SKFSansRound-Medium;
    src: url('https://fonts.skf.com/SKFSansRound-Medium.woff');
}
@font-face {
    font-family: SKFSansRound-Regular;
    src: url('https://fonts.skf.com/SKFSansRound-Regular.woff');
}
@font-face {
    font-family: SKFSans-Variable;
    src: url('https://fonts.skf.com/SKFSans-Variable.woff');
}
.SKFSans-Bold{
    font-family: SKFSans-Bold;
    font-size:12px;
}
.SKFSansRound-Bold{
    font-family: SKFSansRound-Bold;
    font-size:12px;
}
.SKFSans-Light{
    font-family: SKFSans-Light;
    font-size:12px;
}
.SKFSansRound-Light{
    font-family: SKFSansRound-Light;
    font-size:12px;
}
.SKFSans-Medium{
    font-family: SKFSans-Medium;
    font-size:12px;
}
.SKFSansRound-Medium{
    font-family: SKFSansRound-Medium;
    font-size:12px;
}
.SKFSans-Regular{
    font-family: SKFSans-Regular;
    font-size:12px;
}
.SKFSansRound-Regular{
    font-family: SKFSansRound-Regular;
    font-size:12px;
}
.SKFSans-Variable{
    font-family: SKFSans-Variable;
    font-size:16px;
}
    </style>
  </defs>

  <defs
     id="defs1">
    <clipPath
       clipPathUnits="userSpaceOnUse"
       id="clipPath2">
      <path
         d="M 0,268.642 H 127.787 V 0 H 0 Z"
         transform="translate(-72.890602,-211.72361)"
         id="path2" />
    </clipPath>
    <clipPath
       clipPathUnits="userSpaceOnUse"
       id="clipPath4">
      <path
         d="M 0,268.642 H 127.787 V 0 H 0 Z"
         transform="translate(-72.890602,-35.517603)"
         id="path4" />
    </clipPath>
    <clipPath
       clipPathUnits="userSpaceOnUse"
       id="clipPath6">
      <path
         d="M 0,268.642 H 127.787 V 0 H 0 Z"
         transform="translate(-29.272401,-214.66021)"
         id="path6" />
    </clipPath>
    <clipPath
       clipPathUnits="userSpaceOnUse"
       id="clipPath8">
      <path
         d="M 0,268.642 H 127.787 V 0 H 0 Z"
         transform="translate(-29.3818,-185.1836)"
         id="path8" />
    </clipPath>
    <clipPath
       clipPathUnits="userSpaceOnUse"
       id="clipPath10">
      <path
         d="M 0,268.642 H 127.787 V 0 H 0 Z"
         transform="translate(-31.884701,-203.94631)"
         id="path10" />
    </clipPath>
    <clipPath
       clipPathUnits="userSpaceOnUse"
       id="clipPath12">
      <path
         d="M 0,268.642 H 127.787 V 0 H 0 Z"
         transform="translate(-83.550805,-123.6211)"
         id="path12" />
    </clipPath>
    <clipPath
       clipPathUnits="userSpaceOnUse"
       id="clipPath14">
      <path
         d="M 0,268.642 H 127.787 V 0 H 0 Z"
         transform="translate(-29.3818,-185.1836)"
         id="path14" />
    </clipPath>
    <clipPath
       clipPathUnits="userSpaceOnUse"
       id="clipPath16">
      <path
         d="M 0,268.642 H 127.787 V 0 H 0 Z"
         transform="translate(-80.287105,-185.94631)"
         id="path16" />
    </clipPath>
    <clipPath
       clipPathUnits="userSpaceOnUse"
       id="clipPath18">
      <path
         d="M 0,268.642 H 127.787 V 0 H 0 Z"
         transform="translate(-29.272401,-205.95901)"
         id="path18" />
    </clipPath>
    <clipPath
       clipPathUnits="userSpaceOnUse"
       id="clipPath20">
      <path
         d="M 0,268.642 H 127.787 V 0 H 0 Z"
         transform="translate(-69.410102,-213.89941)"
         id="path20" />
    </clipPath>
    <clipPath
       clipPathUnits="userSpaceOnUse"
       id="clipPath22">
      <path
         d="M 0,268.642 H 127.787 V 0 H 0 Z"
         transform="translate(-73.705002,-208.84081)"
         id="path22" />
    </clipPath>
    <clipPath
       clipPathUnits="userSpaceOnUse"
       id="clipPath24">
      <path
         d="M 0,268.642 H 127.787 V 0 H 0 Z"
         transform="translate(-32.101501,-193.93951)"
         id="path24" />
    </clipPath>
    <clipPath
       clipPathUnits="userSpaceOnUse"
       id="clipPath26">
      <path
         d="M 0,268.642 H 127.787 V 0 H 0 Z"
         transform="translate(-29.5996,-193.93951)"
         id="path26" />
    </clipPath>
    <clipPath
       clipPathUnits="userSpaceOnUse"
       id="clipPath28">
      <path
         d="M 0,268.642 H 127.787 V 0 H 0 Z"
         transform="translate(-27.856401,-198.1826)"
         id="path28" />
    </clipPath>
    <clipPath
       clipPathUnits="userSpaceOnUse"
       id="clipPath30">
      <path
         d="M 0,268.642 H 127.787 V 0 H 0 Z"
         transform="translate(-29.272401,-32.580101)"
         id="path30" />
    </clipPath>
    <clipPath
       clipPathUnits="userSpaceOnUse"
       id="clipPath32">
      <path
         d="M 0,268.642 H 127.787 V 0 H 0 Z"
         transform="translate(-29.3818,-62.058604)"
         id="path32" />
    </clipPath>
    <clipPath
       clipPathUnits="userSpaceOnUse"
       id="clipPath34">
      <path
         d="M 0,268.642 H 127.787 V 0 H 0 Z"
         transform="translate(-31.884701,-43.293004)"
         id="path34" />
    </clipPath>
    <clipPath
       clipPathUnits="userSpaceOnUse"
       id="clipPath36">
      <path
         d="M 0,268.642 H 127.787 V 0 H 0 Z"
         transform="translate(-29.3818,-62.058604)"
         id="path36" />
    </clipPath>
    <clipPath
       clipPathUnits="userSpaceOnUse"
       id="clipPath38">
      <path
         d="M 0,268.642 H 127.787 V 0 H 0 Z"
         transform="translate(-80.287105,-61.294902)"
         id="path38" />
    </clipPath>
    <clipPath
       clipPathUnits="userSpaceOnUse"
       id="clipPath40">
      <path
         d="M 0,268.642 H 127.787 V 0 H 0 Z"
         transform="translate(-29.272401,-41.281301)"
         id="path40" />
    </clipPath>
    <clipPath
       clipPathUnits="userSpaceOnUse"
       id="clipPath42">
      <path
         d="M 0,268.642 H 127.787 V 0 H 0 Z"
         transform="translate(-69.410102,-33.341801)"
         id="path42" />
    </clipPath>
    <clipPath
       clipPathUnits="userSpaceOnUse"
       id="clipPath44">
      <path
         d="M 0,268.642 H 127.787 V 0 H 0 Z"
         transform="translate(-73.705002,-38.402298)"
         id="path44" />
    </clipPath>
    <clipPath
       clipPathUnits="userSpaceOnUse"
       id="clipPath46">
      <path
         d="M 0,268.642 H 127.787 V 0 H 0 Z"
         transform="translate(-32.101501,-53.300801)"
         id="path46" />
    </clipPath>
    <clipPath
       clipPathUnits="userSpaceOnUse"
       id="clipPath48">
      <path
         d="M 0,268.642 H 127.787 V 0 H 0 Z"
         transform="translate(-29.5996,-53.300801)"
         id="path48" />
    </clipPath>
    <clipPath
       clipPathUnits="userSpaceOnUse"
       id="clipPath50">
      <path
         d="M 0,268.642 H 127.787 V 0 H 0 Z"
         transform="translate(-27.856401,-49.058599)"
         id="path50" />
    </clipPath>
    <clipPath
       clipPathUnits="userSpaceOnUse"
       id="clipPath52">
      <path
         d="M 0,268.642 H 127.787 V 0 H 0 Z"
         transform="translate(-4.3447001,-116.13481)"
         id="path52" />
    </clipPath>
    <clipPath
       clipPathUnits="userSpaceOnUse"
       id="clipPath54">
      <path
         d="M 0,268.642 H 127.787 V 0 H 0 Z"
         transform="translate(-4.3447001,-213.21481)"
         id="path54" />
    </clipPath>
    <clipPath
       clipPathUnits="userSpaceOnUse"
       id="clipPath55">
      <path
         d="M 0,268.642 H 127.787 V 0 H 0 Z"
         transform="matrix(1,0,0,-1,-5.0000002e-4,118.9219)"
         id="path55" />
    </clipPath>
    <clipPath
       clipPathUnits="userSpaceOnUse"
       id="clipPath57">
      <path
         d="M 0,268.642 H 127.787 V 0 H 0 Z"
         transform="translate(-28.335901,-217.18651)"
         id="path57" />
    </clipPath>
    <clipPath
       clipPathUnits="userSpaceOnUse"
       id="clipPath59">
      <path
         d="M 0,268.642 H 127.787 V 0 H 0 Z"
         transform="translate(-27.960901,-30.261701)"
         id="path59" />
    </clipPath>
    <clipPath
       clipPathUnits="userSpaceOnUse"
       id="clipPath61">
      <path
         d="M 0,268.642 H 127.787 V 0 H 0 Z"
         transform="translate(-55.084001,-240.53321)"
         id="path61" />
    </clipPath>
    <clipPath
       clipPathUnits="userSpaceOnUse"
       id="clipPath63">
      <path
         d="M 0,268.642 H 127.787 V 0 H 0 Z"
         transform="translate(-33.353501,-240.53321)"
         id="path63" />
    </clipPath>
    <clipPath
       clipPathUnits="userSpaceOnUse"
       id="clipPath65">
      <path
         d="M 0,268.642 H 127.787 V 0 H 0 Z"
         transform="translate(-29.3818,-218.37891)"
         id="path65" />
    </clipPath>
    <clipPath
       clipPathUnits="userSpaceOnUse"
       id="clipPath67">
      <path
         d="M 0,268.642 H 127.787 V 0 H 0 Z"
         transform="translate(-69.263602,-218.30661)"
         id="path67" />
    </clipPath>
    <clipPath
       clipPathUnits="userSpaceOnUse"
       id="clipPath69">
      <path
         d="M 0,268.642 H 127.787 V 0 H 0 Z"
         transform="translate(-61.715801,-144.90331)"
         id="path69" />
    </clipPath>
    <clipPath
       clipPathUnits="userSpaceOnUse"
       id="clipPath71">
      <path
         d="M 0,268.642 H 127.787 V 0 H 0 Z"
         transform="translate(-33.670901,-144.90331)"
         id="path71" />
    </clipPath>
    <clipPath
       clipPathUnits="userSpaceOnUse"
       id="clipPath73">
      <path
         d="M 0,268.642 H 127.787 V 0 H 0 Z"
         transform="translate(-80.406205,-200.62891)"
         id="path73" />
    </clipPath>
    <clipPath
       clipPathUnits="userSpaceOnUse"
       id="clipPath75">
      <path
         d="M 0,268.642 H 127.787 V 0 H 0 Z"
         transform="translate(-103.37691,-115.84381)"
         id="path75" />
    </clipPath>
    <clipPath
       clipPathUnits="userSpaceOnUse"
       id="clipPath77">
      <path
         d="M 0,268.642 H 127.787 V 0 H 0 Z"
         transform="translate(-103.37691,-180.2744)"
         id="path77" />
    </clipPath>
    <clipPath
       clipPathUnits="userSpaceOnUse"
       id="clipPath79">
      <path
         d="M 0,268.642 H 127.787 V 0 H 0 Z"
         transform="translate(-82.714802,-184.2461)"
         id="path79" />
    </clipPath>
    <clipPath
       clipPathUnits="userSpaceOnUse"
       id="clipPath81">
      <path
         d="M 0,268.642 H 127.787 V 0 H 0 Z"
         transform="translate(-79.835904,-63.226602)"
         id="path81" />
    </clipPath>
    <clipPath
       clipPathUnits="userSpaceOnUse"
       id="clipPath83">
      <path
         d="M 0,268.642 H 127.787 V 0 H 0 Z"
         transform="translate(-122.0683,-114.73441)"
         id="path83" />
    </clipPath>
    <clipPath
       clipPathUnits="userSpaceOnUse"
       id="clipPath85">
      <path
         d="M 0,268.642 H 127.787 V 0 H 0 Z"
         transform="translate(-122.0683,-196.27831)"
         id="path85" />
    </clipPath>
    <clipPath
       clipPathUnits="userSpaceOnUse"
       id="clipPath86">
      <path
         d="M 0,268.642 H 127.787 V 0 H 0 Z"
         transform="matrix(1,0,0,-1,-122.78271,116.44921)"
         id="path86" />
    </clipPath>
    <clipPath
       clipPathUnits="userSpaceOnUse"
       id="clipPath88">
      <path
         d="M 0,268.642 H 127.787 V 0 H 0 Z"
         transform="translate(-81.210902,-200.25001)"
         id="path88" />
    </clipPath>
    <clipPath
       clipPathUnits="userSpaceOnUse"
       id="clipPath90">
      <path
         d="M 0,268.642 H 127.787 V 0 H 0 Z"
         transform="translate(-81.0859,-47.527301)"
         id="path90" />
    </clipPath>
    <clipPath
       clipPathUnits="userSpaceOnUse"
       id="clipPath92">
      <path
         d="M 0,268.642 H 127.787 V 0 H 0 Z"
         transform="translate(-56.481401,-6.9375027)"
         id="path92" />
    </clipPath>
    <clipPath
       clipPathUnits="userSpaceOnUse"
       id="clipPath94">
      <path
         d="M 0,268.642 H 127.787 V 0 H 0 Z"
         transform="translate(-33.854501,-6.9688002)"
         id="path94" />
    </clipPath>
    <clipPath
       clipPathUnits="userSpaceOnUse"
       id="clipPath95">
      <path
         d="M 0,268.642 H 127.787 V 0 H 0 Z"
         transform="matrix(1,0,0,-1,-47.657701,3.8965001)"
         id="path95" />
    </clipPath>
    <clipPath
       clipPathUnits="userSpaceOnUse"
       id="clipPath97">
      <path
         d="M 0,268.642 H 127.787 V 0 H 0 Z"
         transform="translate(-29.3818,-29.253903)"
         id="path97" />
    </clipPath>
    <clipPath
       clipPathUnits="userSpaceOnUse"
       id="clipPath99">
      <path
         d="M 0,268.642 H 127.787 V 0 H 0 Z"
         transform="translate(-72.037102,-121.58011)"
         id="path99" />
    </clipPath>
    <clipPath
       clipPathUnits="userSpaceOnUse"
       id="clipPath107">
      <path
         d="M 0,268.642 H 127.787 V 0 H 0 Z"
         transform="translate(-71.679702,-123.6211)"
         id="path107" />
    </clipPath>
    <clipPath
       clipPathUnits="userSpaceOnUse"
       id="clipPath109">
      <path
         d="M 0,268.642 H 127.787 V 0 H 0 Z"
         transform="translate(-71.679702,-123.6211)"
         id="path109" />
    </clipPath>
    <clipPath
       clipPathUnits="userSpaceOnUse"
       id="clipPath111">
      <path
         d="M 0,268.642 H 127.787 V 0 H 0 Z"
         transform="translate(-63.582002,-8.0781027)"
         id="path111" />
    </clipPath>
    <clipPath
       clipPathUnits="userSpaceOnUse"
       id="clipPath113">
      <path
         d="M 0,268.642 H 127.787 V 0 H 0 Z"
         transform="translate(-37.800801,-239.36041)"
         id="path113" />
    </clipPath>
    <clipPath
       clipPathUnits="userSpaceOnUse"
       id="clipPath115">
      <path
         d="M 0,268.642 H 127.787 V 0 H 0 Z"
         transform="translate(-60.844702,-241.70411)"
         id="path115" />
    </clipPath>
    <clipPath
       clipPathUnits="userSpaceOnUse"
       id="clipPath117">
      <path
         d="M 0,268.642 H 127.787 V 0 H 0 Z"
         transform="translate(-3.1728001,-208.84961)"
         id="path117" />
    </clipPath>
    <clipPath
       clipPathUnits="userSpaceOnUse"
       id="clipPath119">
      <path
         d="M 0,268.642 H 127.787 V 0 H 0 Z"
         transform="translate(-120.8965,-191.9131)"
         id="path119" />
    </clipPath>
    <clipPath
       clipPathUnits="userSpaceOnUse"
       id="clipPath121">
      <path
         d="M 0,268.642 H 127.787 V 0 H 0 Z"
         transform="translate(-102.205,-175.9102)"
         id="path121" />
    </clipPath>
    <clipPath
       clipPathUnits="userSpaceOnUse"
       id="clipPath123">
      <path
         d="M 0,268.642 H 127.787 V 0 H 0 Z"
         transform="translate(-104.55081,-71.564502)"
         id="path123" />
    </clipPath>
    <clipPath
       clipPathUnits="userSpaceOnUse"
       id="clipPath125">
      <path
         d="M 0,268.642 H 127.787 V 0 H 0 Z"
         transform="translate(-123.2383,-55.865201)"
         id="path125" />
    </clipPath>
    <clipPath
       clipPathUnits="userSpaceOnUse"
       id="clipPath127">
      <path
         d="M 0,268.642 H 127.787 V 0 H 0 Z"
         transform="translate(-5.5156001,-38.599601)"
         id="path127" />
    </clipPath>
    <clipPath
       clipPathUnits="userSpaceOnUse"
       id="clipPath129">
      <path
         d="M 0,268.642 H 127.787 V 0 H 0 Z"
         transform="translate(-37.800801,-5.7949001)"
         id="path129" />
    </clipPath>
    <clipPath
       clipPathUnits="userSpaceOnUse"
       id="clipPath131">
      <path
         d="M 0,268.642 H 127.787 V 0 H 0 Z"
         transform="translate(-37.903301,-143.73241)"
         id="path131" />
    </clipPath>
    <clipPath
       clipPathUnits="userSpaceOnUse"
       id="clipPath133">
      <path
         d="M 0,268.642 H 127.787 V 0 H 0 Z"
         transform="translate(-71.931602,-146.07721)"
         id="path133" />
    </clipPath>
    <clipPath
       clipPathUnits="userSpaceOnUse"
       id="clipPath135">
      <path
         d="M 0,268.642 H 127.787 V 0 H 0 Z"
         transform="translate(-61.192402,-259.30861)"
         id="path135" />
    </clipPath>
    <clipPath
       clipPathUnits="userSpaceOnUse"
       id="clipPath137">
      <path
         d="M 0,268.642 H 127.787 V 0 H 0 Z"
         transform="translate(-33.353501,-259.30861)"
         id="path137" />
    </clipPath>
    <clipPath
       clipPathUnits="userSpaceOnUse"
       id="clipPath139">
      <path
         d="M 0,268.642 H 127.787 V 0 H 0 Z"
         transform="translate(-37.800801,-258.13671)"
         id="path139" />
    </clipPath>
    <clipPath
       clipPathUnits="userSpaceOnUse"
       id="clipPath141">
      <path
         d="M 0,268.642 H 127.787 V 0 H 0 Z"
         transform="translate(-71.964802,-260.47951)"
         id="path141" />
    </clipPath>
  </defs>
  <g
     id="layer-MC0"
     transform="translate(-1.2350416,-8.2908018)">
    <path
       id="path1"
       d="m 0,0 0.814,-2.883 c 0,0 -41.44,-10.278 -41.876,-10.387 -0.434,-0.109 -0.597,-0.543 -0.434,-1.141 0.163,-0.6 0.707,-3.373 0.707,-3.373 h -2.502 c 0,0 -1.388,2.356 -1.631,3.535 -0.382,1.851 0.488,3.916 3.426,4.623 C -38.559,-8.918 0,0 0,0"
       style="fill:#bfcfed;fill-opacity:1;fill-rule:nonzero;stroke:#231f20;stroke-width:0.561;stroke-linecap:round;stroke-linejoin:round;stroke-miterlimit:4;stroke-dasharray:none;stroke-opacity:1"
       transform="matrix(1.3333333,0,0,-1.3333333,97.187467,75.8912)"
       clip-path="url(#clipPath2)" />
    <path
       id="path3"
       d="m 0,0 0.814,2.885 c 0,0 -41.44,10.277 -41.876,10.383 -0.434,0.109 -0.597,0.546 -0.434,1.142 0.163,0.6 0.707,3.373 0.707,3.373 h -2.502 c 0,0 -1.388,-2.355 -1.631,-3.535 -0.382,-1.85 0.488,-3.914 3.426,-4.621 C -38.559,8.918 0,0 0,0"
       style="fill:#bfcfed;fill-opacity:1;fill-rule:nonzero;stroke:#231f20;stroke-width:0.561;stroke-linecap:round;stroke-linejoin:round;stroke-miterlimit:4;stroke-dasharray:none;stroke-opacity:1"
       transform="matrix(1.3333333,0,0,-1.3333333,97.187467,310.83253)"
       clip-path="url(#clipPath4)" />
    <path
       id="path5"
       d="m 0,0 c 0,2.502 1.85,2.502 2.829,2.502 h 35.895 c 0.871,0 1.414,-0.545 1.414,-0.978 v -2.285 c 0,0 -36.113,-8.81 -37.418,-9.136 C 1.416,-10.225 0,-9.626 0,-8.539 Z"
       style="fill:#bfcfed;fill-opacity:1;fill-rule:nonzero;stroke:#231f20;stroke-width:0.748;stroke-linecap:round;stroke-linejoin:round;stroke-miterlimit:4;stroke-dasharray:none;stroke-opacity:1"
       transform="matrix(1.3333333,0,0,-1.3333333,39.029867,71.975733)"
       clip-path="url(#clipPath6)" />
    <path
       id="path7"
       d="m 0,0 v 4.351 l 1.85,1.632 h 3.48 l 0.761,-1.088 35.133,6.634 -0.543,2.72 1.304,0.652 h 7.399 l 1.521,-1.414 V 0.763 C 50.905,0 48.946,-1.305 47.858,-1.305 H 1.197 C 0.761,-1.305 0,0 0,0"
       style="fill:#bfcfed;fill-opacity:1;fill-rule:nonzero;stroke:#231f20;stroke-width:0.748;stroke-linecap:round;stroke-linejoin:round;stroke-miterlimit:4;stroke-dasharray:none;stroke-opacity:1"
       transform="matrix(1.3333333,0,0,-1.3333333,39.175733,111.27787)"
       clip-path="url(#clipPath8)" />
    <path
       id="path9"
       d="M 0,0 C -0.163,0.544 0.105,0.806 0.705,0.925 1.044,0.992 34.266,9.118 34.533,9.19 35.131,9.355 35.404,9.245 35.566,8.865 35.662,8.642 38.721,-6.146 38.83,-6.417 38.939,-6.689 38.34,-7.559 37.906,-7.669 37.471,-7.776 4.621,-13.814 4.188,-13.922 3.751,-14.031 3.317,-13.595 3.154,-13.378 2.99,-13.161 0,0 0,0"
       style="fill:#ffffff;fill-opacity:1;fill-rule:nonzero;stroke:#231f20;stroke-width:0.748;stroke-linecap:round;stroke-linejoin:round;stroke-miterlimit:4;stroke-dasharray:none;stroke-opacity:1"
       transform="matrix(1.3333333,0,0,-1.3333333,42.512933,86.260933)"
       clip-path="url(#clipPath10)" />
    <path
       id="path11"
       d="M 0,0 H -58.737"
       style="fill:none;stroke:#231f20;stroke-width:0.468;stroke-linecap:round;stroke-linejoin:round;stroke-miterlimit:4;stroke-dasharray:16.37, 1.871, 0.935, 1.871;stroke-dashoffset:0;stroke-opacity:1"
       transform="matrix(1.3333333,0,0,-1.3333333,111.40107,193.3612)"
       clip-path="url(#clipPath12)" />
    <path
       id="path13"
       d="M 0,0 V -61.563"
       style="fill:none;stroke:#231f20;stroke-width:0.561;stroke-linecap:round;stroke-linejoin:round;stroke-miterlimit:4;stroke-dasharray:none;stroke-opacity:1"
       transform="matrix(1.3333333,0,0,-1.3333333,39.175733,111.27787)"
       clip-path="url(#clipPath14)" />
    <path
       id="path15"
       d="M 0,0 V -62.325"
       style="fill:none;stroke:#231f20;stroke-width:0.748;stroke-linecap:round;stroke-linejoin:round;stroke-miterlimit:4;stroke-dasharray:none;stroke-opacity:1"
       transform="matrix(1.3333333,0,0,-1.3333333,107.04947,110.26093)"
       clip-path="url(#clipPath16)" />
    <path
       id="path17"
       d="M 0,0 V -4.678"
       style="fill:none;stroke:#231f20;stroke-width:0.748;stroke-linecap:round;stroke-linejoin:round;stroke-miterlimit:4;stroke-dasharray:none;stroke-opacity:1"
       transform="matrix(1.3333333,0,0,-1.3333333,39.029867,83.577333)"
       clip-path="url(#clipPath18)" />
    <path
       id="path19"
       d="M 0,0 V -2.938"
       style="fill:none;stroke:#231f20;stroke-width:0.748;stroke-linecap:round;stroke-linejoin:round;stroke-miterlimit:4;stroke-dasharray:none;stroke-opacity:1"
       transform="matrix(1.3333333,0,0,-1.3333333,92.5468,72.990133)"
       clip-path="url(#clipPath20)" />
    <path
       id="path21"
       d="M 0,0 V -8.756"
       style="fill:none;stroke:#231f20;stroke-width:0.561;stroke-linecap:round;stroke-linejoin:round;stroke-miterlimit:4;stroke-dasharray:none;stroke-opacity:1"
       transform="matrix(1.3333333,0,0,-1.3333333,98.273333,79.734933)"
       clip-path="url(#clipPath22)" />
    <path
       id="path23"
       d="M 0,0 V -2.772"
       style="fill:none;stroke:#231f20;stroke-width:0.561;stroke-linecap:round;stroke-linejoin:round;stroke-miterlimit:4;stroke-dasharray:none;stroke-opacity:1"
       transform="matrix(1.3333333,0,0,-1.3333333,42.802,99.603333)"
       clip-path="url(#clipPath24)" />
    <path
       id="path25"
       d="M 0,0 V -4.242"
       style="fill:none;stroke:#231f20;stroke-width:0.561;stroke-linecap:round;stroke-linejoin:round;stroke-miterlimit:4;stroke-dasharray:none;stroke-opacity:1"
       transform="matrix(1.3333333,0,0,-1.3333333,39.466133,99.603333)"
       clip-path="url(#clipPath26)" />
    <path
       id="path27"
       d="M 0,0 V -74.561"
       style="fill:none;stroke:#231f20;stroke-width:0.468;stroke-linecap:round;stroke-linejoin:round;stroke-miterlimit:4;stroke-dasharray:none;stroke-opacity:1"
       transform="matrix(1.3333333,0,0,-1.3333333,37.141867,93.945867)"
       clip-path="url(#clipPath28)" />
    <path
       id="path29"
       d="m 0,0 c 0,-2.502 1.85,-2.502 2.829,-2.502 h 35.895 c 0.871,0 1.414,0.547 1.414,0.979 v 2.285 c 0,0 -36.113,8.81 -37.418,9.134 C 1.416,10.225 0,9.627 0,8.541 Z"
       style="fill:#bfcfed;fill-opacity:1;fill-rule:nonzero;stroke:#231f20;stroke-width:0.748;stroke-linecap:round;stroke-linejoin:round;stroke-miterlimit:4;stroke-dasharray:none;stroke-opacity:1"
       transform="matrix(1.3333333,0,0,-1.3333333,39.029867,314.7492)"
       clip-path="url(#clipPath30)" />
    <path
       id="path31"
       d="m 0,0 v -4.354 l 1.85,-1.63 h 3.48 l 0.761,1.088 35.133,-6.635 -0.543,-2.721 1.304,-0.652 h 7.399 l 1.521,1.416 v 12.724 c 0,0.764 -1.959,2.067 -3.047,2.067 H 1.197 C 0.761,1.303 0,0 0,0"
       style="fill:#bfcfed;fill-opacity:1;fill-rule:nonzero;stroke:#231f20;stroke-width:0.748;stroke-linecap:round;stroke-linejoin:round;stroke-miterlimit:4;stroke-dasharray:none;stroke-opacity:1"
       transform="matrix(1.3333333,0,0,-1.3333333,39.175733,275.44453)"
       clip-path="url(#clipPath32)" />
    <path
       id="path33"
       d="m 0,0 c -0.163,-0.543 0.105,-0.801 0.705,-0.922 0.339,-0.068 33.561,-8.195 33.828,-8.269 0.598,-0.163 0.871,-0.053 1.033,0.326 0.096,0.224 3.155,15.011 3.264,15.283 0.109,0.271 -0.49,1.143 -0.924,1.25 C 37.471,7.777 4.621,13.814 4.188,13.924 3.751,14.033 3.317,13.596 3.154,13.379 2.99,13.162 0,0 0,0"
       style="fill:#ffffff;fill-opacity:1;fill-rule:nonzero;stroke:#231f20;stroke-width:0.748;stroke-linecap:round;stroke-linejoin:round;stroke-miterlimit:4;stroke-dasharray:none;stroke-opacity:1"
       transform="matrix(1.3333333,0,0,-1.3333333,42.512933,300.46533)"
       clip-path="url(#clipPath34)" />
    <path
       id="path35"
       d="M 0,0 V 61.563"
       style="fill:none;stroke:#231f20;stroke-width:0.561;stroke-linecap:round;stroke-linejoin:round;stroke-miterlimit:4;stroke-dasharray:none;stroke-opacity:1"
       transform="matrix(1.3333333,0,0,-1.3333333,39.175733,275.44453)"
       clip-path="url(#clipPath36)" />
    <path
       id="path37"
       d="M 0,0 V 62.326"
       style="fill:none;stroke:#231f20;stroke-width:0.748;stroke-linecap:round;stroke-linejoin:round;stroke-miterlimit:4;stroke-dasharray:none;stroke-opacity:1"
       transform="matrix(1.3333333,0,0,-1.3333333,107.04947,276.4628)"
       clip-path="url(#clipPath38)" />
    <path
       id="path39"
       d="M 0,0 V 4.678"
       style="fill:none;stroke:#231f20;stroke-width:0.748;stroke-linecap:round;stroke-linejoin:round;stroke-miterlimit:4;stroke-dasharray:none;stroke-opacity:1"
       transform="matrix(1.3333333,0,0,-1.3333333,39.029867,303.1476)"
       clip-path="url(#clipPath40)" />
    <path
       id="path41"
       d="M 0,0 V 2.936"
       style="fill:none;stroke:#231f20;stroke-width:0.748;stroke-linecap:round;stroke-linejoin:round;stroke-miterlimit:4;stroke-dasharray:none;stroke-opacity:1"
       transform="matrix(1.3333333,0,0,-1.3333333,92.5468,313.7336)"
       clip-path="url(#clipPath42)" />
    <path
       id="path43"
       d="M 0,0 V 8.752"
       style="fill:none;stroke:#231f20;stroke-width:0.561;stroke-linecap:round;stroke-linejoin:round;stroke-miterlimit:4;stroke-dasharray:none;stroke-opacity:1"
       transform="matrix(1.3333333,0,0,-1.3333333,98.273333,306.98627)"
       clip-path="url(#clipPath44)" />
    <path
       id="path45"
       d="M 0,0 V 2.773"
       style="fill:none;stroke:#231f20;stroke-width:0.561;stroke-linecap:round;stroke-linejoin:round;stroke-miterlimit:4;stroke-dasharray:none;stroke-opacity:1"
       transform="matrix(1.3333333,0,0,-1.3333333,42.802,287.1216)"
       clip-path="url(#clipPath46)" />
    <path
       id="path47"
       d="M 0,0 V 4.242"
       style="fill:none;stroke:#231f20;stroke-width:0.561;stroke-linecap:round;stroke-linejoin:round;stroke-miterlimit:4;stroke-dasharray:none;stroke-opacity:1"
       transform="matrix(1.3333333,0,0,-1.3333333,39.466133,287.1216)"
       clip-path="url(#clipPath48)" />
    <path
       id="path49"
       d="M 0,0 V 74.563"
       style="fill:none;stroke:#231f20;stroke-width:0.471;stroke-linecap:butt;stroke-linejoin:miter;stroke-miterlimit:4;stroke-dasharray:none;stroke-opacity:1"
       transform="matrix(1.3333333,0,0,-1.3333333,37.141867,292.77787)"
       clip-path="url(#clipPath50)" />
    <path
       id="path51"
       d="M 0,0 V -81.908"
       style="fill:none;stroke:#231f20;stroke-width:0.468;stroke-linecap:round;stroke-linejoin:round;stroke-miterlimit:1;stroke-dasharray:none;stroke-opacity:1"
       transform="matrix(1.3333333,0,0,-1.3333333,5.7929333,203.34293)"
       clip-path="url(#clipPath52)" />
    <path
       id="path53"
       d="M 0,0 V -81.655"
       style="fill:none;stroke:#231f20;stroke-width:0.468;stroke-linecap:round;stroke-linejoin:round;stroke-miterlimit:1;stroke-dasharray:none;stroke-opacity:1"
       transform="matrix(1.3333333,0,0,-1.3333333,5.7929333,73.902933)"
       clip-path="url(#clipPath54)" />
    <text
       id="text54"
       xml:space="preserve"
       transform="matrix(1.3333333,0,0,1.3333333,6.6666667e-4,199.6268)"
       clip-path="url(#clipPath55)"><tspan
         id="tspan54"
         style="font-variant:normal;font-weight:normal;font-stretch:normal;font-size:12px;font-family:Arial;writing-mode:lr-tb;fill:#231f20;fill-opacity:1;fill-rule:nonzero;stroke:none"
         x="0"
         y="0">D</tspan></text>
    <path
       id="path56"
       d="M 0,0 H -26.932"
       style="fill:none;stroke:#231f20;stroke-width:0.468;stroke-linecap:round;stroke-linejoin:round;stroke-miterlimit:1;stroke-dasharray:none;stroke-opacity:1"
       transform="matrix(1.3333333,0,0,-1.3333333,37.7812,68.607333)"
       clip-path="url(#clipPath57)" />
    <path
       id="path58"
       d="M 0,0 H -26.557"
       style="fill:none;stroke:#231f20;stroke-width:0.468;stroke-linecap:round;stroke-linejoin:round;stroke-miterlimit:1;stroke-dasharray:none;stroke-opacity:1"
       transform="matrix(1.3333333,0,0,-1.3333333,37.2812,317.8404)"
       clip-path="url(#clipPath59)" />
    <path
       id="path60"
       d="M 0,0 H 10.215"
       style="fill:none;stroke:#231f20;stroke-width:0.468;stroke-linecap:round;stroke-linejoin:round;stroke-miterlimit:1;stroke-dasharray:none;stroke-opacity:1"
       transform="matrix(1.3333333,0,0,-1.3333333,73.445333,37.4784)"
       clip-path="url(#clipPath61)" />
    <path
       id="path62"
       d="M 0,0 H 9.745"
       style="fill:none;stroke:#231f20;stroke-width:0.468;stroke-linecap:round;stroke-linejoin:round;stroke-miterlimit:1;stroke-dasharray:none;stroke-opacity:1"
       transform="matrix(1.3333333,0,0,-1.3333333,44.471333,37.4784)"
       clip-path="url(#clipPath63)" />
    <text
       id="text63"
       xml:space="preserve"
       transform="matrix(1.3333333,0,0,1.3333333,61.0176,43.596933)"><tspan
         id="tspan63"
         style="font-variant:normal;font-weight:normal;font-stretch:normal;font-size:12px;font-family:Arial;writing-mode:lr-tb;fill:#231f20;fill-opacity:1;fill-rule:nonzero;stroke:none"
         x="0"
         y="0">C</tspan></text>
    <path
       id="path64"
       d="M 0,0 V 43.811"
       style="fill:none;stroke:#231f20;stroke-width:0.468;stroke-linecap:round;stroke-linejoin:round;stroke-miterlimit:1;stroke-dasharray:none;stroke-opacity:1"
       transform="matrix(1.3333333,0,0,-1.3333333,39.175733,67.017467)"
       clip-path="url(#clipPath65)" />
    <path
       id="path66"
       d="M 0,0 V 25.166"
       style="fill:none;stroke:#231f20;stroke-width:0.468;stroke-linecap:round;stroke-linejoin:round;stroke-miterlimit:1;stroke-dasharray:none;stroke-opacity:1"
       transform="matrix(1.3333333,0,0,-1.3333333,92.351467,67.113867)"
       clip-path="url(#clipPath67)" />
    <path
       id="path68"
       d="M 0,0 H 13.741"
       style="fill:none;stroke:#231f20;stroke-width:0.468;stroke-linecap:round;stroke-linejoin:round;stroke-miterlimit:1;stroke-dasharray:none;stroke-opacity:1"
       transform="matrix(1.3333333,0,0,-1.3333333,82.287733,164.98493)"
       clip-path="url(#clipPath69)" />
    <path
       id="path70"
       d="M 0,0 H 14.185"
       style="fill:none;stroke:#231f20;stroke-width:0.468;stroke-linecap:round;stroke-linejoin:round;stroke-miterlimit:1;stroke-dasharray:none;stroke-opacity:1"
       transform="matrix(1.3333333,0,0,-1.3333333,44.894533,164.98493)"
       clip-path="url(#clipPath71)" />
    <text
       id="text71"
       xml:space="preserve"
       transform="matrix(1.3333333,0,0,1.3333333,67.8796,172.08253)"><tspan
         id="tspan71"
         style="font-variant:normal;font-weight:normal;font-stretch:normal;font-size:12px;font-family:Arial;writing-mode:lr-tb;fill:#231f20;fill-opacity:1;fill-rule:nonzero;stroke:none"
         x="0"
         y="0">B</tspan></text>
    <path
       id="path72"
       d="M 0,0 V 61.372"
       style="fill:none;stroke:#231f20;stroke-width:0.468;stroke-linecap:round;stroke-linejoin:round;stroke-miterlimit:1;stroke-dasharray:none;stroke-opacity:1"
       transform="matrix(1.3333333,0,0,-1.3333333,107.20827,90.684133)"
       clip-path="url(#clipPath73)" />
    <path
       id="path74"
       d="M 0,0 V -48.652"
       style="fill:none;stroke:#231f20;stroke-width:0.468;stroke-linecap:round;stroke-linejoin:round;stroke-miterlimit:1;stroke-dasharray:none;stroke-opacity:1"
       transform="matrix(1.3333333,0,0,-1.3333333,137.83587,203.73093)"
       clip-path="url(#clipPath75)" />
    <path
       id="path76"
       d="M 0,0 V -49.334"
       style="fill:none;stroke:#231f20;stroke-width:0.468;stroke-linecap:round;stroke-linejoin:round;stroke-miterlimit:1;stroke-dasharray:none;stroke-opacity:1"
       transform="matrix(1.3333333,0,0,-1.3333333,137.83587,117.82347)"
       clip-path="url(#clipPath77)" />
    <text
       id="text77"
       xml:space="preserve"
       transform="matrix(1.3333333,0,0,1.3333333,133.18293,199.62427)"><tspan
         id="tspan77"
         style="font-variant:normal;font-weight:normal;font-stretch:normal;font-size:12px;font-family:Arial;writing-mode:lr-tb;fill:#231f20;fill-opacity:1;fill-rule:nonzero;stroke:none"
         x="0"
         y="0">d</tspan></text>
    <path
       id="path78"
       d="M 0,0 H 23.602"
       style="fill:none;stroke:#231f20;stroke-width:0.468;stroke-linecap:round;stroke-linejoin:round;stroke-miterlimit:1;stroke-dasharray:none;stroke-opacity:1"
       transform="matrix(1.3333333,0,0,-1.3333333,110.2864,112.52787)"
       clip-path="url(#clipPath79)" />
    <path
       id="path80"
       d="M 0,0 H 26.48"
       style="fill:none;stroke:#231f20;stroke-width:0.468;stroke-linecap:round;stroke-linejoin:round;stroke-miterlimit:1;stroke-dasharray:none;stroke-opacity:1"
       transform="matrix(1.3333333,0,0,-1.3333333,106.44787,273.8872)"
       clip-path="url(#clipPath81)" />
    <path
       id="path82"
       d="M 0,0 V -63.242"
       style="fill:none;stroke:#231f20;stroke-width:0.468;stroke-linecap:round;stroke-linejoin:round;stroke-miterlimit:1;stroke-dasharray:none;stroke-opacity:1"
       transform="matrix(1.3333333,0,0,-1.3333333,162.75773,205.21013)"
       clip-path="url(#clipPath83)" />
    <path
       id="path84"
       d="M 0,0 V -65.186"
       style="fill:none;stroke:#231f20;stroke-width:0.468;stroke-linecap:round;stroke-linejoin:round;stroke-miterlimit:1;stroke-dasharray:none;stroke-opacity:1"
       transform="matrix(1.3333333,0,0,-1.3333333,162.75773,96.484933)"
       clip-path="url(#clipPath85)" />
    <text
       id="text85"
       xml:space="preserve"
       transform="matrix(1.3333333,0,0,1.3333333,154.81187,199.62427)"><tspan
         id="tspan85"
         style="font-variant:normal;font-weight:normal;font-stretch:normal;font-size:12px;font-family:Arial;writing-mode:lr-tb;fill:#231f20;fill-opacity:1;fill-rule:nonzero;stroke:none"
         x="0"
         y="0">d</tspan></text>
    <text
       id="text86"
       xml:space="preserve"
       transform="matrix(1.3333333,0,0,1.3333333,163.71027,202.92373)"
       clip-path="url(#clipPath86)"><tspan
         id="tspan86"
         style="font-variant:normal;font-weight:normal;font-stretch:normal;font-size:9px;font-family:Arial;writing-mode:lr-tb;fill:#231f20;fill-opacity:1;fill-rule:nonzero;stroke:none"
         x="0"
         y="0">1</tspan></text>
    <path
       id="path87"
       d="M 0,0 H 43.797"
       style="fill:none;stroke:#231f20;stroke-width:0.468;stroke-linecap:round;stroke-linejoin:round;stroke-miterlimit:1;stroke-dasharray:none;stroke-opacity:1"
       transform="matrix(1.3333333,0,0,-1.3333333,108.2812,91.189333)"
       clip-path="url(#clipPath88)" />
    <path
       id="path89"
       d="M 0,0 H 43.922"
       style="fill:none;stroke:#231f20;stroke-width:0.468;stroke-linecap:round;stroke-linejoin:round;stroke-miterlimit:1;stroke-dasharray:none;stroke-opacity:1"
       transform="matrix(1.3333333,0,0,-1.3333333,108.11453,294.8196)"
       clip-path="url(#clipPath90)" />
    <path
       id="path91"
       d="M 0,0 10.112,-0.019"
       style="fill:none;stroke:#231f20;stroke-width:0.468;stroke-linecap:round;stroke-linejoin:round;stroke-miterlimit:1;stroke-dasharray:none;stroke-opacity:1"
       transform="matrix(1.3333333,0,0,-1.3333333,75.308533,348.93933)"
       clip-path="url(#clipPath92)" />
    <path
       id="path93"
       d="M 0,0 10.747,-0.018"
       style="fill:none;stroke:#231f20;stroke-width:0.468;stroke-linecap:round;stroke-linejoin:round;stroke-miterlimit:1;stroke-dasharray:none;stroke-opacity:1"
       transform="matrix(1.3333333,0,0,-1.3333333,45.139333,348.8976)"
       clip-path="url(#clipPath94)" />
    <text
       id="text94"
       xml:space="preserve"
       transform="matrix(1.3333333,0,0,1.3333333,63.5436,352.994)"
       clip-path="url(#clipPath95)"><tspan
         id="tspan94"
         style="font-variant:normal;font-weight:normal;font-stretch:normal;font-size:12px;font-family:Arial;writing-mode:lr-tb;fill:#231f20;fill-opacity:1;fill-rule:nonzero;stroke:none"
         x="0"
         y="0">a</tspan></text>
    <path
       id="path96"
       d="M 0,0 V -25.23"
       style="fill:none;stroke:#231f20;stroke-width:0.468;stroke-linecap:round;stroke-linejoin:round;stroke-miterlimit:1;stroke-dasharray:none;stroke-opacity:1"
       transform="matrix(1.3333333,0,0,-1.3333333,39.175733,319.18413)"
       clip-path="url(#clipPath97)" />
    <path
       id="path98"
       d="M 0,0 V -117.666"
       style="fill:none;stroke:#231f20;stroke-width:0.468;stroke-linecap:round;stroke-linejoin:round;stroke-miterlimit:1;stroke-dasharray:none;stroke-opacity:1"
       transform="matrix(1.3333333,0,0,-1.3333333,96.049467,196.08253)"
       clip-path="url(#clipPath99)" />
    <text
       id="text99"
       xml:space="preserve"
       transform="matrix(1.3333333,0,0,1.3333333,42.047467,62.699733)"><tspan
         id="tspan99"
         style="font-variant:normal;font-weight:normal;font-stretch:normal;font-size:12px;font-family:Arial;writing-mode:lr-tb;fill:#231f20;fill-opacity:1;fill-rule:nonzero;stroke:none"
         x="0"
         y="0">r</tspan></text>
    <text
       id="text100"
       xml:space="preserve"
       transform="matrix(1.3333333,0,0,1.3333333,47.3756,65.999867)"><tspan
         id="tspan100"
         style="font-variant:normal;font-weight:normal;font-stretch:normal;font-size:9px;font-family:Arial;writing-mode:lr-tb;fill:#231f20;fill-opacity:1;fill-rule:nonzero;stroke:none"
         x="0"
         y="0">4</tspan></text>
    <text
       id="text101"
       xml:space="preserve"
       transform="matrix(1.3333333,0,0,1.3333333,109.18293,107.2128)"><tspan
         id="tspan101"
         style="font-variant:normal;font-weight:normal;font-stretch:normal;font-size:12px;font-family:Arial;writing-mode:lr-tb;fill:#231f20;fill-opacity:1;fill-rule:nonzero;stroke:none"
         x="0"
         y="0">r</tspan></text>
    <text
       id="text102"
       xml:space="preserve"
       transform="matrix(1.3333333,0,0,1.3333333,114.51107,110.51293)"><tspan
         id="tspan102"
         style="font-variant:normal;font-weight:normal;font-stretch:normal;font-size:9px;font-family:Arial;writing-mode:lr-tb;fill:#231f20;fill-opacity:1;fill-rule:nonzero;stroke:none"
         x="0"
         y="0">1</tspan></text>
    <text
       id="text103"
       xml:space="preserve"
       transform="matrix(1.3333333,0,0,1.3333333,90.263733,125.4328)"><tspan
         id="tspan103"
         style="font-variant:normal;font-weight:normal;font-stretch:normal;font-size:12px;font-family:Arial;writing-mode:lr-tb;fill:#231f20;fill-opacity:1;fill-rule:nonzero;stroke:none"
         x="0"
         y="0">r</tspan></text>
    <text
       id="text104"
       xml:space="preserve"
       transform="matrix(1.3333333,0,0,1.3333333,95.591733,128.73293)"><tspan
         id="tspan104"
         style="font-variant:normal;font-weight:normal;font-stretch:normal;font-size:9px;font-family:Arial;writing-mode:lr-tb;fill:#231f20;fill-opacity:1;fill-rule:nonzero;stroke:none"
         x="0"
         y="0">2</tspan></text>
    <text
       id="text105"
       xml:space="preserve"
       transform="matrix(1.3333333,0,0,1.3333333,22.942,81.874267)"><tspan
         id="tspan105"
         style="font-variant:normal;font-weight:normal;font-stretch:normal;font-size:12px;font-family:Arial;writing-mode:lr-tb;fill:#231f20;fill-opacity:1;fill-rule:nonzero;stroke:none"
         x="0"
         y="0">r</tspan></text>
    <text
       id="text106"
       xml:space="preserve"
       transform="matrix(1.3333333,0,0,1.3333333,28.270133,85.1744)"><tspan
         id="tspan106"
         style="font-variant:normal;font-weight:normal;font-stretch:normal;font-size:9px;font-family:Arial;writing-mode:lr-tb;fill:#231f20;fill-opacity:1;fill-rule:nonzero;stroke:none"
         x="0"
         y="0">3</tspan></text>
    <path
       id="path106"
       d="M 0,0 -23.453,87.555"
       style="fill:none;stroke:#231f20;stroke-width:0.468;stroke-linecap:round;stroke-linejoin:round;stroke-miterlimit:1;stroke-dasharray:36.482, 1.871, 0.935, 1.871;stroke-dashoffset:0;stroke-opacity:1"
       transform="matrix(1.3333333,0,0,-1.3333333,95.572933,193.3612)"
       clip-path="url(#clipPath107)" />
    <path
       id="path108"
       d="M 0,0 -23.453,-88.51"
       style="fill:none;stroke:#231f20;stroke-width:0.468;stroke-linecap:round;stroke-linejoin:round;stroke-miterlimit:1;stroke-dasharray:36.482, 1.871, 0.935, 1.871;stroke-dashoffset:0;stroke-opacity:1"
       transform="matrix(1.3333333,0,0,-1.3333333,95.572933,193.3612)"
       clip-path="url(#clipPath109)" />
    <path
       id="path110"
       d="M 0,0 8.418,-1.168 0,-2.342 Z"
       style="fill:#231f20;fill-opacity:1;fill-rule:nonzero;stroke:none"
       transform="matrix(1.3333333,0,0,-1.3333333,84.776,347.41853)"
       clip-path="url(#clipPath111)" />
    <path
       id="path112"
       d="M 0,0 -8.419,1.173 0,2.344 Z"
       style="fill:#231f20;fill-opacity:1;fill-rule:nonzero;stroke:none"
       transform="matrix(1.3333333,0,0,-1.3333333,50.401067,39.042133)"
       clip-path="url(#clipPath113)" />
    <path
       id="path114"
       d="M 0,0 8.419,-1.171 0,-2.344 Z"
       style="fill:#231f20;fill-opacity:1;fill-rule:nonzero;stroke:none"
       transform="matrix(1.3333333,0,0,-1.3333333,81.126267,35.9172)"
       clip-path="url(#clipPath115)" />
    <path
       id="path116"
       d="M 0,0 1.172,8.337 2.343,0 Z"
       style="fill:#231f20;fill-opacity:1;fill-rule:nonzero;stroke:none"
       transform="matrix(1.3333333,0,0,-1.3333333,4.2304,79.7232)"
       clip-path="url(#clipPath117)" />
    <path
       id="path118"
       d="M 0,0 1.172,8.337 2.342,0 Z"
       style="fill:#231f20;fill-opacity:1;fill-rule:nonzero;stroke:none"
       transform="matrix(1.3333333,0,0,-1.3333333,161.19533,102.3052)"
       clip-path="url(#clipPath119)" />
    <path
       id="path120"
       d="M 0,0 1.172,8.336 2.346,0 Z"
       style="fill:#231f20;fill-opacity:1;fill-rule:nonzero;stroke:none"
       transform="matrix(1.3333333,0,0,-1.3333333,136.27333,123.6424)"
       clip-path="url(#clipPath121)" />
    <path
       id="path122"
       d="M 0,0 -1.174,-8.338 -2.346,0 Z"
       style="fill:#231f20;fill-opacity:1;fill-rule:nonzero;stroke:none"
       transform="matrix(1.3333333,0,0,-1.3333333,139.40107,262.77)"
       clip-path="url(#clipPath123)" />
    <path
       id="path124"
       d="M 0,0 -1.17,-8.338 -2.342,0 Z"
       style="fill:#231f20;fill-opacity:1;fill-rule:nonzero;stroke:none"
       transform="matrix(1.3333333,0,0,-1.3333333,164.31773,283.7024)"
       clip-path="url(#clipPath125)" />
    <path
       id="path126"
       d="M 0,0 -1.171,-8.338 -2.343,0 Z"
       style="fill:#231f20;fill-opacity:1;fill-rule:nonzero;stroke:none"
       transform="matrix(1.3333333,0,0,-1.3333333,7.3541333,306.7232)"
       clip-path="url(#clipPath127)" />
    <path
       id="path128"
       d="M 0,0 -8.419,1.174 0,2.344 Z"
       style="fill:#231f20;fill-opacity:1;fill-rule:nonzero;stroke:none"
       transform="matrix(1.3333333,0,0,-1.3333333,50.401067,350.4628)"
       clip-path="url(#clipPath129)" />
    <path
       id="path130"
       d="M 0,0 -8.419,1.171 0,2.345 Z"
       style="fill:#231f20;fill-opacity:1;fill-rule:nonzero;stroke:none"
       transform="matrix(1.3333333,0,0,-1.3333333,50.537733,166.54613)"
       clip-path="url(#clipPath131)" />
    <path
       id="path132"
       d="M 0,0 8.418,-1.174 0,-2.345 Z"
       style="fill:#231f20;fill-opacity:1;fill-rule:nonzero;stroke:none"
       transform="matrix(1.3333333,0,0,-1.3333333,95.9088,163.41973)"
       clip-path="url(#clipPath133)" />
    <path
       id="path134"
       d="M 0,0 H 15.112"
       style="fill:none;stroke:#231f20;stroke-width:0.468;stroke-linecap:round;stroke-linejoin:round;stroke-miterlimit:1;stroke-dasharray:none;stroke-opacity:1"
       transform="matrix(1.3333333,0,0,-1.3333333,81.589867,12.444533)"
       clip-path="url(#clipPath135)" />
    <path
       id="path136"
       d="M 0,0 H 15.853"
       style="fill:none;stroke:#231f20;stroke-width:0.468;stroke-linecap:round;stroke-linejoin:round;stroke-miterlimit:1;stroke-dasharray:none;stroke-opacity:1"
       transform="matrix(1.3333333,0,0,-1.3333333,44.471333,12.444533)"
       clip-path="url(#clipPath137)" />
    <path
       id="path138"
       d="M 0,0 -8.419,1.172 0,2.343 Z"
       style="fill:#231f20;fill-opacity:1;fill-rule:nonzero;stroke:none"
       transform="matrix(1.3333333,0,0,-1.3333333,50.401067,14.007067)"
       clip-path="url(#clipPath139)" />
    <path
       id="path140"
       d="M 0,0 8.418,-1.171 0,-2.343 Z"
       style="fill:#231f20;fill-opacity:1;fill-rule:nonzero;stroke:none"
       transform="matrix(1.3333333,0,0,-1.3333333,95.953067,10.883333)"
       clip-path="url(#clipPath141)" />
    <text
       id="text141"
       xml:space="preserve"
       transform="matrix(1.3333333,0,0,1.3333333,68.9356,23.2036)"><tspan
         id="tspan141"
         style="font-variant:normal;font-weight:normal;font-stretch:normal;font-size:12px;font-family:Arial;writing-mode:lr-tb;fill:#231f20;fill-opacity:1;fill-rule:nonzero;stroke:none"
         x="0"
         y="0">T</tspan></text>
  </g>
</svg>
