<?xml version="1.0" encoding="utf-8"?>
<!-- Generator: Adobe Illustrator 19.2.1, SVG Export Plug-In . SVG Version: 6.00 Build 0)  -->
<svg version="1.1" id="layer" xmlns="http://www.w3.org/2000/svg" xmlns:xlink="http://www.w3.org/1999/xlink" x="0px" y="0px"
	 viewBox="0 0 652 652" style="enable-background:new 0 0 652 652;" xml:space="preserve">
<style type="text/css">
	.st0{fill:#DA2128;}
</style>
<path class="st0" d="M243.8,333.4h13.1v5.8c2-3.7,6.1-6.9,12-6.9c5.1,0,8.6,2.2,10.4,6.4c3.3-4.5,7.9-6.4,12.7-6.4
	c7.3,0,12.6,4.7,12.6,14.3v25.1h-13.1v-22.9c0-3.9-1.9-5.8-4.9-5.8c-3.5,0-5.8,2.2-5.8,6.4v22.2h-13v-22.9c0-3.9-1.9-5.8-4.9-5.8
	c-3.5,0-5.8,2.2-5.8,6.4v22.2h-13.1L243.8,333.4L243.8,333.4L243.8,333.4z M309.1,353.1v-0.6c0-12.3,9.2-20.1,21-20.1
	c11.8,0,20.9,7.6,20.9,19.8v0.6c0,12.5-9.2,20-21,20C318.3,372.7,309.1,365.5,309.1,353.1 M337.7,352.8v-0.6c0-6.4-2.5-10-7.6-10
	c-4.9,0-7.6,3.4-7.6,9.9v0.6c0,6.6,2.5,10.2,7.6,10.2C335,362.9,337.7,359.3,337.7,352.8 M356.9,359.5v-17.1h-4.6v-9h4.6v-2.7
	l13.1-5.3v8h7.6v9H370v15.9c0,2.8,1.4,4,3.9,4c1.5,0,2.5-0.2,3.7-0.7v10c-1.7,0.4-4.2,1.1-7.3,1.1
	C361.7,372.7,356.9,368.5,356.9,359.5 M382.9,320.4L396,315v24.5c2-4,6.2-7.2,12.6-7.2c7.4,0,12.6,4.6,12.6,14.4v24.9h-13.2v-22.3
	c0-4.3-1.7-6.4-5.5-6.4c-3.9,0-6.5,2.3-6.5,7.3v21.5h-13.1V320.4L382.9,320.4z M425.7,353.1v-0.6c0-12.3,9.2-20.1,20.7-20.1
	c10.5,0,19.5,6,19.5,19.8v3.4h-27c0.4,5.1,3.3,8,8,8c4.3,0,6.1-1.9,6.7-4.6h12.3c-1.2,8.7-7.9,13.5-19.5,13.5
	C434.4,372.7,425.7,365.6,425.7,353.1 M453.1,348.3c-0.2-4.6-2.5-7.2-6.7-7.2c-4,0-6.7,2.5-7.3,7.2H453.1z M470.9,333.4H484v7.6
	c2.4-5.7,6.4-8.2,12.4-8.2v12.3c-8-0.2-12.4,2.2-12.4,8.5v18.2h-13.1V333.4z M498.6,359.6h12.1c0.4,2.8,1.7,4.3,5.5,4.3
	c3.2,0,4.7-1.3,4.7-3.1s-1.9-2.7-7.1-3.4c-10.3-1.3-14.6-4.3-14.6-12.3c0-8.5,7.6-12.6,16.5-12.6c9.5,0,16.1,3.2,16.9,12.4h-12
	c-0.5-2.5-1.9-3.8-4.9-3.8c-2.8,0-4.3,1.3-4.3,3c0,1.8,1.8,2.5,6.4,3.1c10.6,1.3,15.8,4.1,15.8,12.3c0,9.1-6.7,13.2-17.4,13.2
	C505.2,372.7,498.8,368.1,498.6,359.6 M535.9,353.1v-0.6c0-12.3,9.2-20.1,21-20.1s20.9,7.6,20.9,19.8v0.6c0,12.5-9.2,20-21,20
	C545.1,372.7,535.9,365.5,535.9,353.1 M564.5,352.8v-0.6c0-6.4-2.5-10-7.6-10c-4.9,0-7.6,3.4-7.6,9.9v0.6c0,6.6,2.5,10.2,7.6,10.2
	C561.9,362.9,564.5,359.3,564.5,352.8 M582.5,333.4h13.2v6.1c2-4,6.2-7.2,12.6-7.2c7.4,0,12.6,4.6,12.6,14.4v24.9h-13.1v-22.3
	c0-4.3-1.7-6.4-5.5-6.4c-3.9,0-6.5,2.3-6.5,7.3v21.5h-13.2L582.5,333.4L582.5,333.4z M186.6,222.5c-10,4.3-17,14.3-17.1,25.9v186.7
	h40c9.4,0,17.1-7.7,17.1-17.1V206.5L186.6,222.5z M112.3,279.6c-10,4.3-17,14.3-17.1,25.9v129.5h40c9.5,0,17.1-7.7,17.1-17.1V263.6
	C152.3,263.6,112.3,279.6,112.3,279.6z M38,336.8c-10,4.3-17,14.3-17.1,25.9v72.4h40c9.4,0,17.1-7.7,17.1-17.1v-97.2L38,336.8
	L38,336.8z"/>
<g>
	<path class="st0" d="M242.9,390.2c0-1.9,1.6-3.6,3.6-3.6s3.6,1.6,3.6,3.6c0,1.9-1.6,3.6-3.6,3.6S242.9,392.1,242.9,390.2z
		 M243.8,400.9h5.5v34.2h-5.5V400.9z M258.1,400.9h5.5v5.5c1.6-3.2,5.4-6,11-6c7,0,12,3.9,12,13.8v21h-5.5v-21.4
		c0-6-2.5-8.7-8.1-8.7c-5,0-9.6,3.2-9.6,9.4v20.7H258v-34.3H258.1L258.1,400.9z M294.9,400.9h5.5v5.5c1.6-3.2,5.4-6,11-6
		c7,0,12,3.9,12,13.8v21H318v-21.4c0-6-2.5-8.7-8.1-8.7c-5,0-9.6,3.2-9.6,9.4v20.7h-5.5L294.9,400.9L294.9,400.9z"/>
</g>
<g>
	<path class="st0" d="M329,418.2v-0.5c0-10.3,7.1-17.4,16.8-17.4s16.8,7.1,16.8,17.4v0.5c0,10.3-7.1,17.4-16.9,17.4
		C336,435.7,329,428.3,329,418.2z M357,418.2v-0.4c0-7.9-4.4-13-11.1-13c-6.9,0-11.1,5.1-11.1,12.9v0.5c0,7.8,4.3,12.9,11.1,12.9
		C352.7,431.2,357,425.9,357,418.2z"/>
</g>
<g>
	<path class="st0" d="M363.9,400.9h5.9l10.1,28.7l10-28.7h5.6l-12.3,34.2h-7L363.9,400.9z"/>
</g>
<g>
	<path class="st0" d="M397.1,425.6c0-7.9,8.4-10.6,17.1-10.6h4.9v-2.5c0-5.5-2.1-7.7-7.3-7.7c-4.7,0-7.3,1.9-7.9,6.1h-5.5
		c0.7-7.8,7-10.6,13.5-10.6c6.5,0,12.5,2.7,12.5,12.2v22.6h-5.5v-4.3c-2.5,3.2-5.6,4.9-10.6,4.9
		C402.1,435.7,397.1,432.6,397.1,425.6L397.1,425.6z M419.2,423.1v-4.3h-4.7c-6.9,0-11.9,1.7-11.9,6.7c0,3.5,1.7,5.8,6.5,5.8
		C414.7,431.3,419.2,428.4,419.2,423.1z M434.1,426.5v-21h-4.9v-4.6h4.9v-7.8h5.5v7.8h8v4.6h-8v20.5c0,3.4,1.5,4.9,4.3,4.9
		c1.7,0,3-0.2,4.2-0.7v4.6c-1.1,0.4-2.4,0.7-4.6,0.7C437.1,435.5,434.1,431.9,434.1,426.5L434.1,426.5z M452.9,390.2
		c0-1.9,1.6-3.6,3.6-3.6c1.9,0,3.6,1.6,3.6,3.6c0,1.9-1.6,3.6-3.6,3.6C454.5,393.8,452.9,392.1,452.9,390.2z M453.9,400.9h5.5v34.2
		h-5.5V400.9z M465.6,418.2v-0.5c0-10.3,7.1-17.4,16.8-17.4c9.7,0,16.8,7.1,16.8,17.4v0.5c0,10.3-7.1,17.4-16.8,17.4
		C472.6,435.7,465.6,428.3,465.6,418.2z M493.6,418.2v-0.4c0-7.9-4.4-13-11.1-13c-6.9,0-11.1,5.1-11.1,12.9v0.5
		c0,7.8,4.3,12.9,11.1,12.9C489.3,431.2,493.6,425.9,493.6,418.2z M505.4,400.9h5.5v5.5c1.6-3.2,5.4-6,11-6c7,0,12,3.9,12,13.8v21
		h-5.5v-21.4c0-6-2.5-8.7-8.1-8.7c-5,0-9.6,3.2-9.6,9.4v20.7h-5.5L505.4,400.9z"/>
</g>
<g>
	<path class="st0" d="M539.1,424.5h5.3c0.4,4,2.5,6.6,8.1,6.6c5.2,0,7.5-1.8,7.5-5.5c0-3.6-2.7-4.8-8-5.8
		c-8.9-1.6-11.9-4.1-11.9-10.1c0-6.4,6.2-9.6,11.6-9.6c6.1,0,11.4,2.5,12.3,9.9h-5.2c-0.7-3.7-2.8-5.4-7.2-5.4
		c-3.9,0-6.5,1.9-6.5,4.9c0,3.1,1.7,4.3,8,5.5c7,1.3,12,2.8,12,10.1c0,6.2-4.3,10.4-12.6,10.4C544.3,435.7,539.5,431.6,539.1,424.5
		L539.1,424.5z"/>
</g>
</svg>
