<?xml version="1.0" encoding="UTF-8"?>
<!DOCTYPE svg PUBLIC "-//W3C//DTD SVG 1.1//EN" "http://www.w3.org/Graphics/SVG/1.1/DTD/svg11.dtd">
<!-- Creator: CorelDRAW 2019 (64-Bit) -->
<svg xmlns="http://www.w3.org/2000/svg" xml:space="preserve" width="187.997mm" height="127.689mm" version="1.1" style="shape-rendering:geometricPrecision; text-rendering:geometricPrecision; image-rendering:optimizeQuality; fill-rule:evenodd; clip-rule:evenodd"
viewBox="0 0 187.9972 127.6887"
 xmlns:xlink="http://www.w3.org/1999/xlink"
 xmlns:xodm="http://www.corel.com/coreldraw/odm/2003">
 <defs>
  <style type="text/css">
   <![CDATA[
    .fil1 {fill:#E53124}
    .fil2 {fill:#1580C3}
    .fil0 {fill:#312F6D}
   ]]>
  </style>
 </defs>
 <g id="Layer_x0020_1">
  <metadata id="CorelCorpID_0Corel-Layer"/>
  <g id="_896831168">
   <polygon class="fil0" points="61.0435,89.6877 120.5601,89.6877 90.8016,44.9401 "/>
   <polygon class="fil1" points="61.0986,0 -0,0 61.0435,89.6877 90.8016,44.9401 "/>
   <polygon class="fil2" points="120.7523,0 90.8016,44.9401 120.5601,89.6877 181.8508,0 "/>
   <polygon class="fil0" points="25.9221,99.7954 18.7706,118.0296 11.5239,99.7954 2.7783,99.7954 14.4532,127.6284 22.7179,127.6284 34.283,99.7954 "/>
   <polygon class="fil0" points="54.1951,127.6702 61.9236,127.6702 61.9236,99.5894 54.1951,99.5894 "/>
   <polygon class="fil0" points="111.2847,127.6702 119.0128,127.6702 119.0128,99.5894 111.2847,99.5894 "/>
   <polygon class="fil0" points="79.4424,105.75 75.3172,120.2572 71.1232,105.75 62.9686,105.7356 70.2848,127.6702 79.6903,127.6702 86.965,105.75 "/>
   <polygon class="fil0" points="121.4537,127.6702 129.1956,127.6702 129.1956,105.75 121.4537,105.75 "/>
   <polygon class="fil0" points="121.4537,103.7147 129.1956,103.7147 129.1956,99.5894 121.4537,99.5894 "/>
   <path class="fil0" d="M146.7423 105.75l-15.0855 0 0 21.9202 7.7157 0 0 -17.3824 5.8031 0 0 17.3824 7.7419 0 0 -16.3376c0,-4.3862 -2.7782,-5.5826 -6.1752,-5.5826z"/>
   <path class="fil0" d="M103.2052 127.6702c3.7682,0 5.6382,-1.816 5.6382,-5.1711 0,-2.9844 0.0138,-11.3587 0.0138,-11.3587 0,-4.4826 -2.9701,-5.3904 -5.7347,-5.3904l-10.079 0c-2.7645,0 -5.7351,0.9078 -5.7351,5.3904 0,0 0.0141,8.3743 0.0141,11.3587 0,3.3551 1.8702,5.1711 5.6515,5.1711l10.2312 0zm-8.0857 -4.552l0 0 0 -12.7341 5.9401 -0.1239 0 12.858 -5.9401 0z"/>
   <path class="fil0" d="M51.6645 111.3464c0,-4.4 -2.7915,-5.5964 -6.5868,-5.5964l-11.0426 0 -1.7185 4.1251c2.118,0 11.6473,0 11.6473,0l0 3.122 -7.8107 0c-3.1772,0 -6.1473,1.0445 -6.1473,5.5966 0,2.6539 0,4.2634 0,4.2634 0,3.2724 1.9527,4.8131 5.9683,4.8131 3.067,0 15.6903,-0.0142 15.6903,-0.0142l0 -16.3096zm-7.7006 11.7718l0 0 -6.5598 0 0 -5.9958 6.5598 0 0 5.9958z"/>
   <path class="fil0" d="M155.1995 111.6351c0,2.9431 0,10.4239 0,10.4239 0,2.0077 0.7011,3.2046 1.1684,3.7401 1.0053,1.1557 2.5994,1.8711 5.4598,1.8711l12.3218 0 1.1004 -4.1394c-2.1319,0 -12.3491,0 -12.3491,0l0 -3.5347 8.1962 0c3.3957,0 5.4859,-1.2785 5.4859,-5.0875 0,-2.6544 0,-4.0844 0,-4.0844 0,-3.9747 -2.6254,-5.0742 -6.0773,-5.0742 -2.0209,0 -5.226,0 -8.7327,0 -3.863,0 -6.5734,1.6635 -6.5734,5.8851zm7.7013 -1.3473l0 0 6.5591 0 0 5.5831 -6.5591 0 0 -5.5831z"/>
   <path class="fil0" d="M128.6172 86.3917l0 -1.0458 3.8633 0 0 1.0458 -1.3054 0 0 3.3272 -1.2656 0 0 -3.3272 -1.2923 0zm6.0646 -1.0458l0 0 0.7976 2.5172 0.7833 -2.5172 1.8148 0 0 4.373 -1.1541 0 0 -3.1624 -0.9493 3.1624 -0.9908 0 -0.9492 -3.1486 0 3.1486 -1.1671 0 0 -4.373 1.8148 0z"/>
   <path class="fil0" d="M178.5373 124.3604l0 -1.0448 3.8632 0 0 1.0448 -1.3069 0 0 3.3283 -1.2781 0 0 -3.3283 -1.2782 0zm6.0629 -1.0448l0 0 0.7977 2.5162 0.7847 -2.5162 1.8146 0 0 4.3731 -1.1553 0 0 -3.1635 -0.9622 3.1635 -0.9766 0 -0.9478 -3.1635 0 3.1635 -1.1697 0 0 -4.3731 1.8146 0z"/>
  </g>
 </g>
</svg>
