<svg xmlns="http://www.w3.org/2000/svg" width="48" height="48" viewBox="0 0 24 24" fill="none" stroke="#000000" stroke-width="2" stroke-linecap="round" stroke-linejoin="round">

    <!-- WhatsApp Bubble -->
    <path d="M20 11.5C20 6.8 16.2 3 11.5 3S3 6.8 3 11.5c0 1.8.6 3.5 1.6 4.9L3.5 21l4.8-1.1c1.3.7 2.7 1.1 4.2 1.1 4.7 0 8.5-3.8 8.5-8.5z"></path>

    <!-- Phone Handset -->
    <path d="M9.2 8.3c.2-.5.5-.5.8-.5h.6c.2 0 .5.1.6.4l.8 1.9c.1.3 0 .6-.2.8l-.6.6c.5 1 1.3 1.8 2.3 2.3l.6-.6c.2-.2.5-.3.8-.2l1.9.8c.3.1.4.3.4.6v.6c0 .3 0 .6-.5.8-.4.2-1 .3-1.5.2-3.2-.7-5.7-3.2-6.4-6.4-.1-.5 0-1.1.2-1.5z"></path>

</svg>